:SAMPLES-PER-SECOND 30
:FULLY-SPECIFIED
:DEGREES
171
root  -5.15579 40.7039 1.36434 162.831 -84.8646 -168.19
RightUpLeg  10.9451 -2.41316 -2.28543
RightLeg  -0.33071 -11.6475 -0.471539
RightFoot  -2.78383 -0.354815 4.48532
RightToes  -3.13006e-008 1.75238e-005 3.56266e-009
Spine  -15.9893 -4.50521 -2.5396
Spine1  27.4178 -8.44372 8.46713
HEad  -13.5562 3.8898 4.62206
LeftShoulder1  5.13913 -10.0695 -31.8681
LeftArm  5.03823 5.495 -50.2665
LeftForeArm  159.746 -72.0407 -148.764
LeftHand  -0.663919 -5.54154 7.3655
RightShoulder  5.4011 10.5219 32.5978
RightArm  2.8668 9.3663 46.0294
RightForeArm  157.028 71.719 148.904
RightHand  -0.944362 10.0856 -7.46055
LeftUpLeg  12.0618 3.59201 2.13611
LeftLeg  0.825177 16.163 -1.30122
LeftFoot  -6.12775 0.0818606 -0.984173
LeftToes  4.78685e-008 1.46778e-008 1.34523e-009
172
root  -5.1221 40.6973 1.37074 163.564 -84.1549 -169.071
RightUpLeg  10.7808 -2.2314 -2.14664
RightLeg  0.0130049 -11.2486 -0.682383
RightFoot  -2.88491 -0.349557 4.45492
RightToes  -3.13006e-008 1.75238e-005 3.56266e-009
Spine  -15.6331 -4.17376 -2.4618
Spine1  26.6824 -8.19745 8.84609
HEad  -11.0796 3.726 5.01891
LeftShoulder1  5.03698 -9.92573 -31.5125
LeftArm  4.39276 8.17847 -51.3108
LeftForeArm  159.717 -71.6126 -149.496
LeftHand  -0.792894 -5.21783 8.96952
RightShoulder  5.5093 10.6536 33.0007
RightArm  3.74734 12.6938 46.3112
RightForeArm  149.368 74.3856 142.085
RightHand  -0.965168 10.3995 -7.46469
LeftUpLeg  12.0282 3.75792 2.24795
LeftLeg  1.31674 16.5803 -1.24494
LeftFoot  -6.40666 0.0960245 -1.31683
LeftToes  4.78685e-008 1.46778e-008 1.34523e-009
173
root  -5.04947 40.7022 1.32192 163.991 -83.7636 -169.196
RightUpLeg  10.1547 -2.0898 -1.9717
RightLeg  0.282636 -11.1001 -0.69103
RightFoot  -2.87801 -0.342475 4.35192
RightToes  -3.13006e-008 1.75238e-005 3.56266e-009
Spine  -15.4797 -3.53131 -2.4391
Spine1  25.5296 -7.53803 9.23372
HEad  -8.53649 2.76405 5.17859
LeftShoulder1  5.04112 -9.94933 -31.4767
LeftArm  4.18419 10.444 -50.4271
LeftForeArm  159.721 -70.671 -151.013
LeftHand  -0.917428 -5.0368 10.4968
RightShoulder  5.52758 10.7389 32.8945
RightArm  3.3186 18.3729 46.7695
RightForeArm  139.045 77.1641 131.271
RightHand  -1.19588 10.793 -8.95683
LeftUpLeg  11.4836 3.79497 2.38438
LeftLeg  1.63221 16.7966 -1.15796
LeftFoot  -6.40184 0.102922 -1.49936
LeftToes  4.78685e-008 1.46778e-008 1.34523e-009
174
root  -4.96219 40.7213 1.21917 163.963 -84.0827 -168.494
RightUpLeg  9.42887 -2.02912 -1.8083
RightLeg  0.117105 -11.5545 -0.459391
RightFoot  -2.75677 -0.335856 4.22328
RightToes  -3.13006e-008 1.75238e-005 3.56266e-009
Spine  -14.9952 -2.70118 -2.63971
Spine1  23.5142 -6.54822 9.6423
HEad  -6.4882 0.66049 5.79874
LeftShoulder1  5.04587 -9.92674 -31.572
LeftArm  4.54541 12.5173 -48.4959
LeftForeArm  159.92 -69.4129 -152.863
LeftHand  -0.947118 -4.87138 10.9932
RightShoulder  5.57169 10.9395 32.6597
RightArm  1.39167 25.6256 46.7428
RightForeArm  125.782 79.1164 117.285
RightHand  -1.26275 11.4581 -9.06852
LeftUpLeg  10.5764 3.67206 2.50056
LeftLeg  1.63021 16.4898 -1.08794
LeftFoot  -6.144 0.107798 -1.58052
LeftToes  4.78685e-008 1.46778e-008 1.34523e-009
175
root  -4.86519 40.7563 1.07858 163.433 -85.1043 -166.912
RightUpLeg  8.5892 -2.02702 -1.64897
RightLeg  -0.51439 -12.6111 0.0155028
RightFoot  -2.44707 -0.320667 3.9074
RightToes  -3.13006e-008 1.75238e-005 3.56266e-009
Spine  -14.3075 -1.5875 -2.09058
Spine1  20.7685 -4.79375 8.72798
HEad  -4.98758 -2.03786 7.3849
LeftShoulder1  4.81454 -9.62895 -30.6604
LeftArm  5.67682 14.6892 -46.9175
LeftForeArm  161.104 -67.9228 -154.899
LeftHand  -0.983884 -4.65197 11.6394
RightShoulder  5.48876 11.0249 31.8573
RightArm  -2.09891 32.9653 46.0401
RightForeArm  111.009 80.108 102.188
RightHand  -1.45505 11.3943 -10.4312
LeftUpLeg  9.23405 3.45897 2.63285
LeftLeg  1.44364 15.6475 -1.0616
LeftFoot  -5.68124 0.117167 -1.68195
LeftToes  4.78685e-008 1.46778e-008 1.34523e-009
176
root  -4.7591 40.8089 0.88646 145.255 -87.0217 -147.472
RightUpLeg  7.99433 -1.90265 -1.27032
RightLeg  -1.9377 -14.9138 0.717646
RightFoot  -1.76323 -0.312067 3.57971
RightToes  -3.13006e-008 1.75238e-005 3.56266e-009
Spine  -13.428 -0.216705 -1.48106
Spine1  17.8092 -2.7061 7.51298
HEad  -4.6173 -7.15896 8.90004
LeftShoulder1  4.76099 -9.63743 -30.2216
LeftArm  6.79086 16.4376 -44.6793
LeftForeArm  162.011 -66.0589 -157.071
LeftHand  -1.02718 -5.29029 11.4431
RightShoulder  5.12457 10.7495 30
RightArm  -8.30204 39.5492 43.8042
RightForeArm  99.5101 80.2085 92.6945
RightHand  -1.55461 10.8439 -11.4488
LeftUpLeg  7.6604 3.21571 2.92983
LeftLeg  0.932385 13.7503 -1.1161
LeftFoot  -4.91929 0.126966 -1.73423
LeftToes  4.78685e-008 1.46778e-008 1.34523e-009
177
root  -4.63394 40.862 0.640073 122.164 -89.9014 -122.806
RightUpLeg  7.15122 -1.75112 -0.882365
RightLeg  -3.46815 -18.2882 1.55442
RightFoot  -1.11069 -0.298559 3.24846
RightToes  -3.13006e-008 1.75238e-005 3.56266e-009
Spine  -12.1293 1.09401 -1.28765
Spine1  14.4725 -0.599575 6.0549
HEad  -4.77684 -12.7916 10.4982
LeftShoulder1  4.64001 -9.45699 -29.7821
LeftArm  8.21824 17.0064 -42.54
LeftForeArm  161.494 -64.2737 -158.704
LeftHand  -1.07742 -5.6474 11.6167
RightShoulder  4.56302 10.1011 27.54
RightArm  -16.9852 44.3074 39.8969
RightForeArm  90.5771 80.1159 85.2795
RightHand  -1.77973 11.2526 -12.746
LeftUpLeg  5.44416 2.80246 3.14985
LeftLeg  0.64213 11.008 -1.06866
LeftFoot  -4.05202 0.150693 -1.98287
LeftToes  4.78685e-008 1.46778e-008 1.34523e-009
178
root  -4.49461 40.9069 0.361469 16.6289 -85.1183 -15.503
RightUpLeg  6.03329 -1.69733 -0.601866
RightLeg  -4.82822 -22.5226 2.57383
RightFoot  -0.621295 -0.286476 3.00553
RightToes  -3.13006e-008 1.75238e-005 3.56266e-009
Spine  -10.1525 2.25961 -0.565605
Spine1  10.4289 1.57986 3.15088
HEad  -5.52111 -20.141 12.7348
LeftShoulder1  4.42008 -9.14895 -28.9034
LeftArm  9.90217 17.624 -40.5583
LeftForeArm  161.445 -62.2554 -160.405
LeftHand  -1.0906 -5.51599 11.8897
RightShoulder  4.04716 9.33194 25.4447
RightArm  -27.9623 46.3036 33.893
RightForeArm  87.422 80.0242 83.3307
RightHand  -1.82448 11.6196 -12.7816
LeftUpLeg  2.85391 2.14912 3.17668
LeftLeg  0.224997 7.57117 -0.914429
LeftFoot  -2.95744 0.184334 -2.27152
LeftToes  4.78685e-008 1.46778e-008 1.34523e-009
179
root  -4.3164 40.9324 0.0632382 4.68785 -80.302 -2.13189
RightUpLeg  5.05426 -1.87715 -0.337562
RightLeg  -5.8992 -27.0074 3.89573
RightFoot  -0.256736 -0.278222 2.84803
RightToes  -3.13006e-008 1.75238e-005 3.56266e-009
Spine  -7.54082 3.21652 0.605199
Spine1  6.85024 3.39067 -0.239776
HEad  -6.95597 -26.9863 15.2055
LeftShoulder1  4.32952 -9.08547 -28.3445
LeftArm  10.7247 16.7614 -39.296
LeftForeArm  160.727 -60.9575 -161.306
LeftHand  -1.06064 -5.12797 11.977
RightShoulder  3.43151 8.15618 23.236
RightArm  -39.2895 46.1576 27.0822
RightForeArm  88.3668 79.9791 86.1326
RightHand  -1.89286 11.6826 -13.1931
LeftUpLeg  0.211669 1.48654 3.27395
LeftLeg  0.225166 3.5281 -0.568589
LeftFoot  -1.95664 0.231607 -2.67904
LeftToes  4.78685e-008 1.46778e-008 1.34523e-009
180
root  -4.13915 40.945 -0.255149 4.14645 -75.3751 -0.600488
RightUpLeg  4.36674 -1.92272 0.0719121
RightLeg  -6.85795 -31.5629 5.09652
RightFoot  -0.0657627 -0.249817 2.52468
RightToes  -3.13006e-008 1.75238e-005 3.56266e-009
Spine  -5.23972 4.12007 2.17099
Spine1  5.23865 5.02891 -3.8382
HEad  -10.3305 -33.4045 18.7901
LeftShoulder1  4.22723 -8.84184 -28.1912
LeftArm  10.9552 14.9 -38.6277
LeftForeArm  160.48 -59.8961 -162.028
LeftHand  -1.05992 -5.17542 11.9187
RightShoulder  2.9336 7.06251 21.4994
RightArm  -50.4307 44.2281 19.4358
RightForeArm  93.4742 79.9079 93.0261
RightHand  -2.04663 12.3231 -13.7279
LeftUpLeg  -1.81368 0.831846 3.3467
LeftLeg  -0.195571 -0.551815 -0.173792
LeftFoot  -0.797361 0.288844 -3.07822
LeftToes  4.78685e-008 1.46778e-008 1.34523e-009
181
root  -3.97802 40.9458 -0.598165 3.94734 -70.7048 0.140755
RightUpLeg  4.06323 -1.6906 0.673068
RightLeg  -7.88186 -36.0495 6.11606
RightFoot  0.0121548 -0.234227 2.35515
RightToes  -3.13006e-008 1.75238e-005 3.56266e-009
Spine  -2.94982 4.802 3.67533
Spine1  4.68492 6.38534 -7.04982
HEad  -13.9767 -38.768 21.7258
LeftShoulder1  4.18749 -8.63283 -28.4585
LeftArm  10.2497 13.0357 -38.4594
LeftForeArm  160.718 -59.1273 -162.56
LeftHand  -1.0457 -5.28971 11.6407
RightShoulder  2.78777 6.59935 21.3031
RightArm  -59.8591 40.7546 11.6705
RightForeArm  96.5565 79.7023 98.5376
RightHand  -2.20644 12.4556 -14.658
LeftUpLeg  -3.3116 0.399399 3.47278
LeftLeg  -0.695061 -4.53165 0.145329
LeftFoot  0.303447 0.374276 -3.68682
LeftToes  4.78685e-008 1.46778e-008 1.34523e-009
182
root  -3.83118 40.9231 -0.935681 3.652 -66.1006 0.903934
RightUpLeg  3.68624 -1.88871 0.929305
RightLeg  -8.62922 -40.0214 7.33504
RightFoot  -0.307585 -0.19887 2.0365
RightToes  -3.13006e-008 1.75238e-005 3.56266e-009
Spine  -1.92438 5.26576 4.11989
Spine1  6.00569 7.276 -8.26046
HEad  -17.8693 -42.9492 24.5699
LeftShoulder1  4.36886 -8.80359 -29.4768
LeftArm  8.99142 11.8977 -38.7295
LeftForeArm  161.273 -58.5685 -162.963
LeftHand  -1.12067 -5.40038 12.3329
RightShoulder  2.73652 6.37534 21.4156
RightArm  -67.1168 37.1336 5.44401
RightForeArm  96.0089 79.6752 98.5304
RightHand  -2.22605 11.9575 -15.1831
LeftUpLeg  -4.83896 -0.120924 3.39065
LeftLeg  -0.943939 -8.31765 0.504744
LeftFoot  1.25392 0.495586 -4.558
LeftToes  4.78685e-008 1.46778e-008 1.34523e-009
183
root  -3.70751 40.8886 -1.27403 3.05883 -62.4286 1.53177
RightUpLeg  3.44226 -2.11406 1.14055
RightLeg  -8.67064 -43.2012 7.91416
RightFoot  -0.850935 -0.176892 1.86255
RightToes  -3.13006e-008 1.75238e-005 3.56266e-009
Spine  -1.20729 5.482 3.52476
Spine1  8.15661 7.69192 -7.88206
HEad  -20.4986 -44.7628 26.0287
LeftShoulder1  4.49468 -8.90169 -30.2253
LeftArm  7.09916 12.3378 -39.638
LeftForeArm  161.722 -57.7839 -163.487
LeftHand  -1.08363 -5.14861 12.205
RightShoulder  2.90073 6.77742 21.9622
RightArm  -71.5861 34.1071 2.36661
RightForeArm  91.9158 79.8778 92.2098
RightHand  -2.23698 11.8787 -15.315
LeftUpLeg  -5.6775 -0.488655 3.2841
LeftLeg  -1.29417 -11.4059 0.760641
LeftFoot  2.07283 0.609138 -5.28851
LeftToes  4.78685e-008 1.46778e-008 1.34523e-009
184
root  -3.59653 40.8381 -1.63092 2.67366 -59.0514 1.57393
RightUpLeg  3.26764 -1.97175 1.78175
RightLeg  -8.32394 -46.8004 7.95575
RightFoot  -1.5098 -0.14779 1.5969
RightToes  -3.13006e-008 1.75238e-005 3.56266e-009
Spine  -0.615518 5.30396 2.77887
Spine1  10.8508 7.61205 -7.12506
HEad  -22.0704 -45.3672 27.8567
LeftShoulder1  4.44764 -8.73132 -30.3464
LeftArm  4.86738 13.2393 -41.5475
LeftForeArm  162.243 -57.4917 -163.704
LeftHand  -1.02556 -5.29064 11.425
RightShoulder  3.08942 7.22752 22.5763
RightArm  -73.0249 31.7201 2.66661
RightForeArm  82.9087 79.8503 81.8247
RightHand  -2.4686 12.3332 -16.436
LeftUpLeg  -6.48045 -0.662513 3.35415
LeftLeg  -0.939558 -14.5259 0.927881
LeftFoot  2.50439 0.684899 -5.76402
LeftToes  4.78685e-008 1.46778e-008 1.34523e-009
